<?xml version="1.0" encoding="iso-8859-1"?>
<!-- Generator: Adobe Illustrator 18.1.1, SVG Export Plug-In . SVG Version: 6.00 Build 0)  -->
<svg version="1.1" id="Capa_1" xmlns="http://www.w3.org/2000/svg" xmlns:xlink="http://www.w3.org/1999/xlink" x="0px" y="0px"
	 viewBox="0 0 792 792" style="enable-background:new 0 0 792 792;" xml:space="preserve">
<g>
	<path d="M688.8,224.622L688.8,224.622c0-1.956-0.978-2.844-1.956-4.8c0,0,0-0.978-0.978-0.978
		c-0.978-0.978-1.956-2.844-2.844-3.822l0,0L470.845,3.822l0,0l0,0l0,0c-0.978-0.978-1.956-1.956-3.822-2.844
		c0,0-0.978,0-0.978-0.978c-0.978,0.978-1.956,0-3.822,0l0,0c-0.978,0-1.956,0-2.844,0H154.044C126.222,0,103.2,23.022,103.2,50.844
		v690.311c0,27.822,23.022,50.844,50.844,50.844h483.822c27.822,0,50.844-23.022,50.844-50.844V228.444
		C688.8,227.556,688.8,225.6,688.8,224.622z M628.356,210.222H476.711V59.556L628.356,210.222z M653.244,741.156
		c0,8.622-6.755,15.378-15.378,15.378H154.044c-8.622,0-15.378-6.756-15.378-15.378V50.844c0-8.622,6.756-15.378,15.378-15.378
		h287.022v192.978c0,9.6,7.644,17.244,17.244,17.244h193.956v495.467H653.244z M571.644,555.822c0,9.6-7.644,17.245-17.244,17.245
		H234.756c-9.6,0-17.244-7.644-17.244-17.245s7.644-17.244,17.244-17.244H554.4C564,537.6,571.644,546.222,571.644,555.822z
		 M571.644,662.4c0,9.6-7.644,17.244-17.244,17.244H234.756c-9.6,0-17.244-7.644-17.244-17.244s7.644-17.244,17.244-17.244H554.4
		C564,644.178,571.644,651.822,571.644,662.4z M571.644,450.222c0,9.6-7.644,17.244-17.244,17.244H234.756
		c-9.6,0-17.244-7.644-17.244-17.244s7.644-17.244,17.244-17.244H554.4C564,432.978,571.644,440.622,571.644,450.222z
		 M234.756,327.378H554.4c9.6,0,17.244,7.644,17.244,17.244c0,9.6-7.644,17.244-17.244,17.244H234.756
		c-9.6,0-17.244-7.644-17.244-17.244C216.444,336,224.178,327.378,234.756,327.378z M216.444,135.378
		c0-9.6,7.644-17.244,17.244-17.244h110.4c9.6,0,17.244,7.644,17.244,17.244s-7.644,17.244-17.244,17.244h-37.422v74.844
		c0,9.6-7.644,17.244-17.244,17.244c-9.6,0-17.244-7.644-17.244-17.244V153.6h-37.422
		C224.178,153.6,216.444,144.978,216.444,135.378z"/>
</g>
<g>
</g>
<g>
</g>
<g>
</g>
<g>
</g>
<g>
</g>
<g>
</g>
<g>
</g>
<g>
</g>
<g>
</g>
<g>
</g>
<g>
</g>
<g>
</g>
<g>
</g>
<g>
</g>
<g>
</g>
</svg>
